<?xml version="1.0" encoding="UTF-8" standalone="no"?>
<!DOCTYPE svg PUBLIC "-//W3C//DTD SVG 1.1//EN" "http://www.w3.org/Graphics/SVG/1.1/DTD/svg11.dtd">
<svg width="100%" height="100%" viewBox="0 0 144 144" version="1.1" xmlns="http://www.w3.org/2000/svg" xmlns:xlink="http://www.w3.org/1999/xlink" xml:space="preserve" xmlns:serif="http://www.serif.com/" style="fill-rule:evenodd;clip-rule:evenodd;stroke-linejoin:round;stroke-miterlimit:2;">
    <g transform="matrix(1.44,0,0,1.44,0,0)">
        <path d="M7.696,91.673C7.696,91.629 43.824,29.039 44.149,28.521L44.343,28.212C44.343,28.212 48.602,35.653 48.506,35.859C48.444,35.993 20.647,84.155 20.647,84.176C20.647,84.197 96.294,84.272 96.294,84.272L92.028,91.656C92.028,91.656 7.696,91.695 7.696,91.673ZM6.115,88.795C6.064,88.846 1.886,81.695 1.85,81.6C1.811,81.497 43.971,8.366 44.031,8.306C44.104,8.235 80.536,71.232 80.613,71.561C80.644,71.696 72.097,71.661 72.097,71.661C72.097,71.661 44.087,23.238 43.984,23.348C43.911,23.427 6.223,88.685 6.115,88.795ZM24.851,81.676C24.851,81.613 28.953,74.518 29.081,74.36C29.172,74.247 85.15,74.16 85.15,74.16L47.168,8.381C47.168,8.381 55.713,8.353 55.814,8.465C55.886,8.544 98.151,81.716 98.151,81.716C98.151,81.716 24.851,81.698 24.851,81.676Z" style="fill:rgb(254,139,4);fill-rule:nonzero;"/>
    </g>
</svg>
